<svg xmlns="http://www.w3.org/2000/svg" height="1000" width="1000" version="1.1" xmlns:xlink="http://www.w3.org/1999/xlink" xmlns:svgjs="http://svgjs.com/svgjs"><rect fill="#fff" width="1000" height="1000"></rect><g><path d="M298.29 453.5C298.29 447.54 296.95 394.41 261.5 357.93 252.87 348.99 249.06 342.72 250.2 339.44 250.71 338 252.15 337.18 254.31 336.87 260.98 336.05 273.83 340.57 280.1 344.88 297.15 356.7 314.83 368.93 334.25 416.91L298.29 453.5Z" fill="#252634" opacity="1" stroke-width="4" stroke="none"></path><path d="M610.97 662.09L610.36 634.45H725.85C739.21 634.45 750 645.34 750 658.6V663.22L610.97 662.09Z" fill="#867d64" opacity="1" stroke-width="4" stroke="none"></path><path d="M483.14 662.91C467.73 662.91 454.27 652.12 451.19 637.02L448.31 622.84C445.23 623.35 442.14 623.56 439.06 623.56 404.23 623.56 379.98 594.48 379.67 594.17 363.33 614.1 336.2 634.45 335.89 634.65 335.89 634.65 335.89 634.65 336 634.65 346.99 634.65 356.03 643.7 356.03 654.79V663.01H301.57L272.29 530.36C266.64 505.59 269.92 479.49 281.43 456.78 298.29 424.21 329.21 405.61 366.21 405.61 399.6 405.61 433.41 420.92 456.63 446.41 506.57 501.69 562.47 581.73 563.09 582.56L594.63 574.44C597.72 573.62 601 573.21 604.19 573.21 615.9 573.21 626.9 578.45 634.3 587.59L650.02 607.01C651.97 609.38 654.85 610.81 657.93 610.81H694.82C694.92 610.81 695.13 610.81 695.23 610.81 700.47 611.02 704.48 615.44 704.27 620.68 702.73 651.51 678.59 662.91 615.29 662.91H483.14V663.12 662.91Z" fill="#aa9b73" opacity="1" stroke-width="4" stroke="none"></path><path d="M379.67 594.17C379.87 594.48 404.23 623.56 439.06 623.56 442.14 623.56 445.23 623.35 448.31 622.84 448.31 622.84 446.77 614.21 445.43 602.18 429.71 596.74 426.32 581.43 417.07 564.68 412.04 555.63 406.28 552.04 406.28 552.04 395.7 576.19 379.67 594.17 379.67 594.17Z" fill="#343434" opacity="0.2" stroke-width="4" stroke="none"></path><path d="M379.67 594.17C387.89 584.3 418.3 549.06 416.25 513.71 414.09 475.79 391.38 455.76 391.38 455.76" stroke="#1d1d1d" stroke-width="4" stroke-linecap="round" stroke-linejoin="round" opacity="1" fill="none"></path><path d="M443.68 573.31C443.68 573.31 445.33 601.87 448.31 622.84" stroke="#1d1d1d" stroke-width="4" stroke-linecap="round" stroke-linejoin="round" opacity="1" fill="none"></path><path d="M327.57 650.89V661.88" stroke="#1d1d1d" stroke-width="4" stroke-linecap="round" stroke-linejoin="round" opacity="1" fill="none"></path><path d="M340.62 650.89V661.88" stroke="#1d1d1d" stroke-width="4" stroke-linecap="round" stroke-linejoin="round" opacity="1" fill="none"></path><path d="M576.03 650.89V661.88" stroke="#1d1d1d" stroke-width="4" stroke-linecap="round" stroke-linejoin="round" opacity="1" fill="none"></path><path d="M589.08 650.89V661.88" stroke="#1d1d1d" stroke-width="4" stroke-linecap="round" stroke-linejoin="round" opacity="1" fill="none"></path><path d="M623.92 619.04C626.87 619.04 629.26 616.65 629.26 613.69 629.26 610.74 626.87 608.35 623.92 608.35 620.97 608.35 618.58 610.74 618.58 613.69 618.58 616.65 620.97 619.04 623.92 619.04Z" fill="#30242a" opacity="1" stroke-width="4" stroke="none"></path><path d="M495.06 662.91C493.93 648.53 507.91 639.18 516.33 634.86 522.7 631.57 528.36 626.84 532.77 621.19L562.98 582.45 594.53 574.44 594.43 574.85 577.37 636.71C570.69 637.43 560.93 640.1 557.33 645.75L546.54 662.81 495.06 662.91Z" fill="#252634" opacity="1" stroke-width="4" stroke="none"></path><path d="M495.06 547.93C487.77 547.93 480.47 546.39 473.07 543.51 427.45 525.01 441.01 475.79 441.22 475.28 433.82 470.14 429.4 463.46 428.07 455.34 426.32 445.07 430.33 433.97 434.95 427.6 442.86 433.05 450.06 439.31 456.53 446.41 477.49 469.42 501.95 499.74 529.49 536.32 518.39 544.02 506.88 547.93 495.06 547.93Z" fill="#252634" opacity="1" stroke-width="4" stroke="none"></path><path d="M346.91 499.05C354.05 486.4 352.23 471.84 342.85 466.53 333.46 461.23 320.05 467.18 312.91 479.83 305.77 492.49 307.57 507.04 316.97 512.34 326.36 517.65 339.76 511.7 346.91 499.05Z" fill="#252634" opacity="1" stroke-width="4" stroke="none"></path><path d="M700.99 627.15C700.06 627.15 699.24 627.05 698.42 626.84 691.02 625.41 686.19 618.21 687.63 610.81H694.72C694.82 610.81 695.03 610.81 695.13 610.81 697.7 610.92 699.96 611.95 701.71 613.9 703.45 615.75 704.27 618.21 704.17 620.68 704.07 622.73 703.86 624.89 703.45 626.95 702.63 627.15 701.81 627.15 700.99 627.15Z" fill="#252634" opacity="1" stroke-width="4" stroke="none"></path><path d="M602.03 663.01V658.49C602.03 645.14 592.17 636.5 578.81 636.5" stroke="#1d1d1d" stroke-width="4" stroke-linecap="round" stroke-linejoin="round" opacity="1" fill="none"></path><path d="M722.77 650.89V661.58" stroke="#1d1d1d" stroke-width="4" stroke-linecap="round" stroke-linejoin="round" opacity="1" fill="none"></path><path d="M735.82 650.89V661.58" stroke="#1d1d1d" stroke-width="4" stroke-linecap="round" stroke-linejoin="round" opacity="1" fill="none"></path><path d="M653 661.17C681.98 658.29 694.51 653.15 700.78 636.5" stroke="#1d1d1d" stroke-width="4" stroke-linecap="round" stroke-linejoin="round" opacity="1" fill="none"></path></g></svg>